<?xml version="1.0" encoding="UTF-8"?>
<svg width="1567px" height="295px" viewBox="0 0 1567 295" version="1.1" xmlns="http://www.w3.org/2000/svg" xmlns:xlink="http://www.w3.org/1999/xlink">
    <!-- Generator: Sketch 55.2 (78181) - https://sketchapp.com -->
    <title>banner</title>
    <desc>Created with Sketch.</desc>
    <g id="Symbols" stroke="none" stroke-width="1" fill="none" fill-rule="evenodd">
        <g id="banner">
            <g>
                <rect id="Rectangle" fill="#141E3B" x="0" y="0" width="1567" height="295"></rect>
                <path d="M98.96798,191.640741 L128.119222,191.640741 L113.543601,177.136436 L98.96798,191.640741 Z M131.624774,189.721083 L138.346458,174.432407 L116.260925,174.432407 L131.624774,189.721083 Z M110.826277,174.432407 L88.740744,174.432407 L95.4624279,189.721083 L110.826277,174.432407 Z M92.1118477,191.640741 L86.1920791,178.176046 L77.1714792,191.640741 L92.1118477,191.640741 Z M134.975354,191.640741 L149.915723,191.640741 L140.895123,178.176046 L134.975354,191.640741 Z M133.294096,195.464815 L119.099278,227.751363 L148.840801,195.464815 L133.294096,195.464815 Z M129.099536,195.464815 L97.9876661,195.464815 L113.543601,230.847265 L129.099536,195.464815 Z M93.7931063,195.464815 L78.2464009,195.464815 L107.987924,227.751363 L93.7931063,195.464815 Z M86.6434641,170.608333 L140.443738,170.608333 L155.815245,193.552778 L113.543601,239.441667 L71.2719573,193.552778 L86.6434641,170.608333 Z" id="Combined-Shape" fill="#233466"></path>
                <path d="M248.001835,134.15125 L248.001835,212.110638 L285.333595,229.616639 L322.665354,212.110638 L322.665354,134.15125 L248.001835,134.15125 Z M242.668726,128.816667 L327.998463,128.816667 L327.998463,215.501475 L285.333595,235.508333 L242.668726,215.501475 L242.668726,128.816667 Z M301.4386,176.887495 L266.667715,176.887495 L264.001161,176.887495 L264.001161,150.155 L306.666029,150.155 L306.666029,155.489583 L269.334269,155.489583 L269.334269,171.552911 L306.771708,171.552911 L306.771708,198.054963 L286.319421,209.1726 L264.001161,198.124824 L264.001161,187.533358 L269.334269,187.533358 L269.334269,194.812704 L286.204507,203.16365 L301.4386,194.882566 L301.4386,176.887495 Z" id="Combined-Shape" fill="#233466"></path>
                <path d="M144.989881,84.3208333 C139.269753,84.3208333 134.632673,88.9434933 134.632673,94.6458333 L134.632673,103.25 C134.632673,108.95234 139.269753,113.575 144.989881,113.575 L151.894686,113.575 C157.614814,113.575 162.251894,108.95234 162.251894,103.25 L162.251894,99.9024414 L155.347089,99.9024414 L155.347089,96.4607747 L169.648532,96.4607747 C175.297329,96.4607747 179.888564,91.8446489 179.888564,86.1357747 L179.888564,79.2524414 C179.888564,73.5435672 175.297329,68.9274414 169.648532,68.9274414 L165.704297,68.9274414 L165.704297,70.5541667 C165.704297,78.1572867 159.521523,84.3208333 151.894686,84.3208333 L144.989881,84.3208333 Z M144.989881,80.8791667 L151.894686,80.8791667 C157.614814,80.8791667 162.251894,76.2565067 162.251894,70.5541667 L162.251894,61.95 C162.251894,56.24766 157.614814,51.625 151.894686,51.625 L144.989881,51.625 C139.269753,51.625 134.632673,56.24766 134.632673,61.95 L134.632673,65.4857747 L141.537478,65.4857747 L141.537478,68.9274414 L127.236035,68.9274414 C121.587238,68.9274414 116.996004,73.5435672 116.996004,79.2524414 L116.996004,86.1357747 C116.996004,91.8446489 121.587238,96.4607747 127.236035,96.4607747 L131.180271,96.4607747 L131.180271,94.6458333 C131.180271,87.0427133 137.363044,80.8791667 144.989881,80.8791667 Z M131.180271,99.9024414 L127.236035,99.9024414 C119.673912,99.9024414 113.543601,93.7388948 113.543601,86.1357747 L113.543601,79.2524414 C113.543601,71.6493214 119.673912,65.4857747 127.236035,65.4857747 L131.180271,65.4857747 L131.180271,61.95 C131.180271,54.3468799 137.363044,48.1833333 144.989881,48.1833333 L151.894686,48.1833333 C159.521523,48.1833333 165.704297,54.3468799 165.704297,61.95 L165.704297,65.4857747 L169.648532,65.4857747 C177.210655,65.4857747 183.340966,71.6493214 183.340966,79.2524414 L183.340966,86.1357747 C183.340966,93.7388948 177.210655,99.9024414 169.648532,99.9024414 L165.704297,99.9024414 L165.704297,103.25 C165.704297,110.85312 159.521523,117.016667 151.894686,117.016667 L144.989881,117.016667 C137.363044,117.016667 131.180271,110.85312 131.180271,103.25 L131.180271,99.9024414 Z M145.001568,61.95 C143.101314,61.95 141.560853,60.4091133 141.560853,58.5083333 C141.560853,56.6075533 143.101314,55.0666667 145.001568,55.0666667 C146.901823,55.0666667 148.442284,56.6075533 148.442284,58.5083333 C148.442284,60.4091133 146.901823,61.95 145.001568,61.95 Z M151.882999,110.133333 C149.982744,110.133333 148.442284,108.592447 148.442284,106.691667 C148.442284,104.790887 149.982744,103.25 151.882999,103.25 C153.783253,103.25 155.323714,104.790887 155.323714,106.691667 C155.323714,108.592447 153.783253,110.133333 151.882999,110.133333 Z" id="Combined-Shape" fill="#233466"></path>
                <path d="M436.127181,88.0083333 C435.868429,87.8196151 435.911455,87.2096754 436.762448,85.3099831 C437.096533,84.5641113 437.858794,83.3083799 439.183966,82.1083333 C439.337461,82.6018689 439.431106,83.0751138 439.428426,83.5157106 C439.411305,86.454955 437.364813,87.552633 436.127181,88.0083333 Z M425.010684,90.7184032 C424.672138,90.9014777 424.36178,91.0165188 424.217498,90.92776 C424.111721,90.8624298 424.35713,90.6213842 424.35713,90.6213842 C424.35713,90.6213842 426.083425,88.7020299 426.763278,87.8279577 C427.158781,87.3197343 427.617344,86.7164444 428.117027,86.0416667 C428.121095,86.1090994 428.123275,86.1759314 428.123275,86.2420124 C428.118189,88.5416331 425.969075,90.0942376 425.010684,90.7184032 Z M410.177935,83.8312065 C409.328323,85.9111917 407.550104,91.2324703 406.467838,90.9473048 C405.538768,90.7025002 404.972978,86.6574033 406.282333,82.6764181 C406.941339,80.6724978 408.349166,78.2780078 409.176209,77.3486197 C410.50767,75.8530919 411.973622,75.3639485 412.329792,75.9702939 C412.783815,76.7428953 410.710643,82.5273932 410.177935,83.8312065 Z M392.675068,95.7560242 C390.191126,98.3798512 386.720848,99.3714643 385.232686,98.5362292 C383.625837,97.6340838 384.262249,93.7712739 387.310509,90.9869537 C389.168428,89.2901157 391.566896,87.7272506 393.158004,86.7645964 C393.520049,86.5536539 394.052097,86.2437938 394.698584,85.8687001 C394.80578,85.809563 394.866226,85.7767938 394.866226,85.7767938 L394.863865,85.772831 C394.988692,85.7005862 395.116509,85.62636 395.248577,85.55 C396.357693,89.5130991 395.282263,93.002187 392.675068,95.7560242 Z M449.271319,76.7704737 C446.316469,76.7860753 443.757193,77.4960236 441.611859,78.5543039 C440.827192,76.987042 440.03311,75.6082346 439.899759,74.5830111 C439.74403,73.3861704 439.563606,72.6722058 439.751592,71.2464393 C439.939734,69.8206727 440.763912,67.8017378 440.751874,67.6505108 C440.739835,67.4992838 440.566974,66.7729615 438.862745,66.7606038 C437.158362,66.7484006 435.700461,67.0887001 435.528989,67.5391373 C435.357362,67.9895745 435.029234,69.0032126 434.825041,70.0601026 C434.526547,71.6068199 431.422295,77.1229764 429.659725,80.008802 C429.083263,78.8825546 428.593077,77.8894611 428.490904,77.1041309 C428.335329,75.9072902 428.15475,75.1933257 428.342737,73.7674046 C428.530878,72.3417925 429.355057,70.3225487 429.343018,70.1713217 C429.33098,70.0200947 429.158273,69.2939269 427.45389,69.2815692 C425.749507,69.269366 424.291606,69.6096654 424.120133,70.0601026 C423.948506,70.5105398 423.765304,71.5629502 423.416186,72.581068 C423.067067,73.5993403 418.940618,82.8010183 417.859925,85.1860493 C417.309238,86.401272 416.83001,87.3775282 416.491696,88.0443791 C416.49077,88.04268 416.489535,88.0406718 416.489535,88.0406718 C416.489535,88.0406718 416.468699,88.085005 416.432738,88.1599234 C416.143195,88.7274495 415.970796,89.0414889 415.970796,89.0414889 C415.970796,89.0414889 415.972648,89.0458141 415.97589,89.0532287 C415.746231,89.4699912 415.500058,89.8570954 415.378129,89.8570954 C415.292933,89.8570954 415.122386,88.7476852 415.415325,87.2249109 C416.029291,84.0329239 417.504324,79.0549441 417.489662,78.8834814 C417.481945,78.7955875 417.763771,77.9282333 416.526422,77.4747066 C415.323646,77.0341556 414.895351,77.7689737 414.785615,77.7712908 C414.679274,77.7736079 414.600252,78.0309564 414.600252,78.0309564 C414.600252,78.0309564 415.940237,72.4329304 412.044372,72.4329304 C409.608723,72.4329304 406.233758,75.0995618 404.571201,77.5167227 C403.521994,78.0895009 401.276802,79.3161544 398.894709,80.6260678 C397.979778,81.1290251 397.046172,81.6432588 396.160875,82.1313869 C396.100682,82.0646555 396.040643,81.9977696 395.978753,81.931656 C391.254851,76.8874082 382.522106,73.3195934 382.892524,66.5381657 C383.027263,64.0728099 383.883545,57.5813241 399.672586,49.7070146 C412.606326,43.256618 422.960418,45.0316433 424.749843,48.9655542 C427.306031,54.5856696 419.216116,65.0313019 405.784318,66.5381657 C400.666693,67.1123341 397.972061,65.1273828 397.30176,64.3879306 C396.596269,63.6097061 396.491009,63.5746412 396.22755,63.7206162 C395.798483,63.9586559 396.070431,64.6457425 396.22755,65.0552449 C396.628681,66.0999317 398.27426,67.952347 401.080017,68.873766 C403.548232,69.6844294 409.556711,70.129769 416.822756,67.3166991 C424.961135,64.1661103 431.315954,55.4017394 429.449359,48.0758017 C427.551124,40.624897 415.207428,38.1754517 403.524927,42.3294836 C396.572038,44.8016361 389.045311,48.6817911 383.633513,53.7479738 C377.198746,59.7718761 376.172689,65.0147735 376.595428,67.2054801 C378.09778,74.9894241 388.817504,80.0583872 393.110179,83.8151199 C392.898269,83.9320544 392.699633,84.0418832 392.5189,84.1416714 C390.366775,85.2072118 382.195367,89.4871375 380.151435,94.0092736 C377.833085,99.1387894 380.520618,102.819059 382.299856,103.314602 C387.812747,104.849888 393.469792,102.088412 396.509993,97.5499015 C399.549576,93.0124728 399.178387,87.1042691 397.783303,84.4073614 C397.766017,84.3738412 397.746878,84.3410934 397.729129,84.3078821 C398.284755,83.9787046 398.851494,83.6439661 399.413139,83.3138618 C400.508494,82.6701815 401.583631,82.0695985 402.516774,81.5613892 C401.994794,82.9931802 401.612338,84.709352 401.413393,87.1878379 C401.179721,90.0996147 402.372002,93.8632986 403.932231,95.3440568 C404.619201,95.9959241 405.445695,96.0112167 405.969527,96.0112167 C407.785035,96.0112167 408.613535,94.4995643 409.525534,92.7117179 C410.644349,90.5190032 411.636913,87.9663713 411.636913,87.9663713 C411.636913,87.9663713 410.391076,94.8619531 413.785488,94.8619531 C415.022219,94.8619531 416.266359,93.2568458 416.820441,92.4384589 C416.821985,92.4474182 416.822756,92.4522068 416.822756,92.4522068 C416.822756,92.4522068 416.855014,92.3989143 416.917984,92.2920204 C417.046396,92.0955334 417.11909,91.970412 417.11909,91.970412 C417.11909,91.970412 417.12156,91.9574364 417.125573,91.9348837 C417.622704,91.0709278 418.725313,89.1012692 420.378918,85.8532092 C422.5153,81.6566978 424.56448,76.3995891 424.56448,76.3995891 C424.56448,76.3995891 424.75509,77.6849416 425.379398,79.8103069 C425.746729,81.0609035 426.527074,82.4432637 427.142739,83.7689331 C426.647151,84.457101 426.342483,84.8523921 426.342483,84.8523921 C426.342483,84.8523921 426.345416,84.8596522 426.350818,84.8729367 C425.95478,85.3990647 425.510742,85.9668998 425.046177,86.5205235 C423.360006,88.5304991 421.351572,90.8257825 421.082556,91.4883082 C420.765849,92.2688498 420.840705,92.8430182 421.452974,93.3048862 C421.900253,93.6422507 422.696496,93.6946163 423.527311,93.6385434 C425.042627,93.5365926 426.108812,93.1604559 426.634804,92.9313755 C427.454816,92.6411247 428.409721,92.1846631 429.305977,91.5253813 C430.960045,90.3083049 431.957702,88.5672632 431.861857,86.2610124 C431.808763,84.9900257 431.403774,83.7303154 430.891517,82.5410438 C431.041691,82.3250934 431.192173,82.107135 431.343118,81.886396 C433.950702,78.0711189 435.973335,73.8786237 435.973335,73.8786237 C435.973335,73.8786237 436.163946,75.1638217 436.788408,77.2893415 C437.104343,78.3652315 437.727725,79.538747 438.288289,80.6898643 C435.836435,82.6837749 434.315872,85.0005297 433.787873,86.5205235 C432.811668,89.3314308 433.576272,90.605198 435.010404,90.8951399 C435.660024,91.0265947 436.577424,90.7286203 437.267635,90.4362068 C438.126386,90.151208 439.158307,89.6765189 440.122164,88.9674973 C441.776232,87.750421 443.366557,86.0461434 443.270712,83.740047 C443.226879,82.6901082 442.94243,81.6480474 442.556424,80.6469214 C444.634774,79.780494 447.325702,79.2986992 450.753143,79.6992423 C458.105928,80.558564 459.548395,85.1534559 459.272743,87.0766188 C458.996936,88.9999362 457.454611,90.0569807 456.938959,90.3762721 C456.423462,90.695409 456.266034,90.8061647 456.309404,91.0435865 C456.372066,91.3886745 456.610522,91.37539 457.050084,91.301244 C457.655408,91.1989842 460.911223,89.736917 461.050592,86.1870208 C461.227621,81.6801774 456.913339,76.7296934 449.271319,76.7704737 L449.271319,76.7704737 Z" id="Fill-1" fill="#233466"></path>
                <path d="M432.504106,232.158647 L428.614806,227.895509 C430.171319,226.718871 431.727833,226.130551 433.284347,226.130551 C434.840861,226.130551 436.397376,226.718871 437.95389,227.895509 L434.069735,232.153006 C434.084249,232.217833 434.091057,232.285622 434.089133,232.35525 C433.993349,235.821837 434.874434,238.219413 436.699158,239.634544 C438.372178,240.932023 440.599409,240.254655 443.533978,237.318074 C443.838603,237.013241 444.324531,237.021478 444.619329,237.336473 C444.914127,237.651468 444.906161,238.153938 444.601536,238.458771 C441.190923,241.871722 438.19873,242.781738 435.778084,240.904451 C434.612206,240.000276 433.76463,238.796669 433.230848,237.305376 C432.669551,238.797512 431.808132,240.000745 430.64237,240.904279 C428.217265,242.783878 425.267665,241.869433 421.958322,238.449519 C421.658393,238.139569 421.658393,237.63704 421.958322,237.32709 C422.258251,237.01714 422.744533,237.01714 423.044462,237.32709 C425.879253,240.256596 428.049765,240.929506 429.72075,239.634395 C431.553701,238.21375 432.48561,235.806137 432.48561,232.332562 C432.48561,232.272819 432.491998,232.214617 432.504106,232.158647 Z M463.861898,196.879516 C469.776671,204.399293 473.344103,213.382048 473.344103,221.111454 C473.344103,241.082491 456.573757,255.138885 434.427685,255.138885 C412.118997,255.138885 394.725078,240.971863 394.726699,221.181686 C394.356587,213.172191 397.746073,204.708813 403.341061,197.617953 C401.600826,195.083226 399.727798,190.660218 400.31176,187.926242 C400.929395,185.034643 402.72184,182.40929 404.963604,180.868483 C407.310653,179.255311 410.266628,178.568601 413.242696,179.198104 C415.74265,179.726904 418.764048,181.921704 420.524429,184.026815 C424.963236,182.038633 429.681226,180.897218 434.427685,180.897218 C438.630148,180.897218 442.775536,181.783734 446.73007,183.431228 C448.525492,181.52314 451.21791,179.677111 453.482463,179.198104 C456.458531,178.568601 459.414506,179.255311 461.761555,180.868483 C464.003319,182.40929 465.795764,185.034643 466.413399,187.926242 C466.944067,190.410709 465.445742,194.289987 463.861898,196.879516 Z M434.418182,251.231429 C454.483052,251.231429 469.411857,238.746378 469.411857,221.037449 C469.411857,213.518389 465.484993,204.423718 459.0899,197.212986 C452.196815,189.440747 443.386785,184.804674 434.418182,184.804674 C416.092382,184.804674 397.878785,204.233695 398.655415,221.037449 C398.655415,238.615923 414.178935,251.231429 434.418182,251.231429 Z M415.078212,222.956262 C412.639087,220.913211 413.125318,216.326256 416.164239,212.711013 C419.20316,209.095769 423.643993,207.821256 426.083118,209.864307 C428.522243,211.907358 428.036012,216.494312 424.997091,220.109556 C421.95817,223.724799 417.517337,224.999313 415.078212,222.956262 Z M421.230635,221.278635 C422.912433,221.278635 424.2758,219.887435 424.2758,218.171302 C424.2758,216.455169 422.912433,215.063969 421.230635,215.063969 C419.548837,215.063969 418.18547,216.455169 418.18547,218.171302 C418.18547,219.887435 419.548837,221.278635 421.230635,221.278635 Z M450.998952,222.956262 C448.559828,224.999313 444.118994,223.724799 441.080073,220.109556 C438.041152,216.494312 437.554921,211.907358 439.994046,209.864307 C442.433171,207.821256 446.874005,209.095769 449.912926,212.711013 C452.951846,216.326256 453.438077,220.913211 450.998952,222.956262 Z M444.846529,221.278635 C446.528328,221.278635 447.891695,219.887435 447.891695,218.171302 C447.891695,216.455169 446.528328,215.063969 444.846529,215.063969 C443.164731,215.063969 441.801364,216.455169 441.801364,218.171302 C441.801364,219.887435 443.164731,221.278635 444.846529,221.278635 Z" id="Combined-Shape" fill="#233466"></path>
                <path d="M1069.03021,186.2925 L1069.03021,247.3575 L1130.07832,247.3575 L1130.07832,186.2925 L1069.03021,186.2925 Z M1065.63864,182.9 L1133.46989,182.9 L1133.46989,250.75 L1065.63864,250.75 L1065.63864,182.9 Z M1079.40151,219.467369 L1084.59058,219.467369 L1084.59058,221.484289 C1084.59058,224.322917 1086.1585,226.302486 1089.21968,226.302486 C1092.28086,226.302486 1093.84878,224.322917 1093.84878,221.484289 L1093.84878,204.489871 L1099.03785,204.489871 L1099.03785,221.969843 C1099.03785,227.049494 1095.60335,231.083333 1089.14501,231.083333 C1082.64934,231.083333 1079.40151,227.049494 1079.40151,221.969843 L1079.40151,219.467369 Z M1120.69009,207.702003 L1117.70357,211.43704 C1116.09832,209.868324 1114.00776,208.747813 1112.17852,208.747813 C1110.46127,208.747813 1108.89335,209.644222 1108.89335,211.212937 C1108.89335,212.408149 1109.63998,213.341908 1111.73054,214.313018 L1113.89576,215.321478 C1118.03955,217.263697 1120.54076,219.430018 1120.54076,223.351807 C1120.54076,227.273596 1117.21826,231.083333 1111.46922,231.083333 C1107.51209,231.083333 1104.5629,229.551968 1102.09903,227.161545 L1104.97355,223.277106 C1106.91478,225.256676 1109.37866,226.377187 1111.35723,226.377187 C1113.59711,226.377187 1114.97838,225.144625 1114.97838,223.538559 C1114.97838,221.745741 1113.37312,220.737281 1110.87192,219.57942 L1109.04268,218.720361 C1105.53352,217.076945 1103.33096,214.686522 1103.33096,211.399689 C1103.33096,206.805594 1107.43742,204.041667 1112.06652,204.041667 C1115.09037,204.041667 1118.18888,205.535681 1120.69009,207.702003 Z" id="Combined-Shape" fill="#233466"></path>
                <path d="M1203.08134,188.309817 C1202.37847,190.913582 1201.85055,193.419387 1201.50908,195.788629 C1200.31691,204.060477 1201.57476,209.341263 1204.02778,210.757516 C1206.4808,212.173768 1211.68302,210.622703 1218.25056,205.454329 C1219.95508,204.112952 1221.68014,202.582927 1223.40518,200.886031 C1220.5234,197.699006 1217.66332,194.091308 1214.91339,190.132543 C1210.74357,189.721512 1206.77588,189.104447 1203.08134,188.309817 Z M1204.57031,183.414541 C1206.71853,183.865302 1208.95732,184.251666 1211.26856,184.569309 C1210.60256,183.491296 1209.94616,182.392822 1209.30079,181.275017 C1208.48767,179.866648 1207.70988,178.458454 1206.96795,177.054043 C1206.07308,179.206392 1205.27212,181.332397 1204.57031,183.414541 Z M1232.30918,190.616544 C1230.59857,190.686177 1228.86293,190.721848 1227.10649,190.721848 C1225.22081,190.721848 1223.35909,190.680735 1221.52659,190.600621 C1223.29332,192.952357 1225.10065,195.158493 1226.92387,197.192886 C1228.74296,195.163085 1230.54625,192.962315 1232.30918,190.616544 Z M1236.07261,185.292622 C1237.47334,183.187137 1238.83417,180.995129 1240.14117,178.731345 C1241.60724,176.192033 1242.96123,173.639211 1244.19496,171.10033 C1242.96123,168.561449 1241.60724,166.008628 1240.14117,163.469315 C1238.49298,160.614572 1236.75918,157.873971 1234.96773,155.277083 C1232.39784,155.110309 1229.77046,155.024428 1227.10649,155.024428 C1224.3101,155.024428 1221.55402,155.11906 1218.86244,155.302554 C1217.07722,157.891889 1215.34936,160.623904 1213.70656,163.469315 C1212.24049,166.008628 1210.8865,168.561449 1209.65277,171.10033 C1210.8865,173.639211 1212.24049,176.192033 1213.70656,178.731345 C1215.0075,180.984643 1216.36179,183.166828 1217.75566,185.263358 C1220.79671,185.499767 1223.92551,185.622217 1227.10649,185.622217 C1230.1535,185.622217 1233.15262,185.509865 1236.07261,185.292622 Z M1231.08458,149.986208 C1229.7145,148.233356 1228.32386,146.569933 1226.92387,145.007775 C1225.52063,146.573548 1224.1268,148.241056 1222.75364,149.998378 C1224.18846,149.949656 1225.64023,149.924797 1227.10649,149.924797 C1228.44522,149.924797 1229.77188,149.945519 1231.08458,149.986208 Z M1249.77647,157.260286 C1247.13794,156.70238 1244.36174,156.241828 1241.4816,155.886681 C1242.5262,157.517406 1243.54974,159.198447 1244.54694,160.925644 C1245.36006,162.334013 1246.13785,163.742206 1246.87978,165.146617 C1247.99442,162.465684 1248.96335,159.825623 1249.77647,157.260286 Z M1251.16614,152.344254 C1251.67251,150.292543 1252.06532,148.308536 1252.33865,146.412031 C1253.53082,138.140184 1252.27297,132.859397 1249.81995,131.443145 C1247.36693,130.026892 1242.16471,131.577958 1235.59717,136.746332 C1233.89266,138.087708 1232.16759,139.617733 1230.44255,141.31463 C1232.90692,144.04003 1235.35542,147.073065 1237.73274,150.370205 C1242.49025,150.775338 1247.002,151.446962 1251.16614,152.344254 Z M1199.60869,182.214317 C1200.79891,178.625826 1202.27417,174.896476 1204.02381,171.10033 C1202.0413,166.798923 1200.41106,162.583283 1199.14862,158.561148 C1196.96552,159.180134 1194.91234,159.87312 1193.01351,160.634276 C1185.25268,163.745246 1181.30774,167.483976 1181.30774,170.323323 C1181.30774,173.16267 1185.25268,176.9014 1193.01351,180.01237 C1195.04518,180.826774 1197.25354,181.563137 1199.60869,182.214317 Z M1198.14085,187.097074 C1184.89382,183.414373 1176.21899,177.274937 1176.21899,170.323323 C1176.21899,163.437426 1184.73058,157.348424 1197.76638,153.654674 C1194.54795,140.69181 1195.58838,130.440495 1201.48377,127.036791 C1207.48734,123.570626 1217.12338,128.015327 1226.92387,137.641722 C1236.72435,128.015327 1246.36039,123.570626 1252.36396,127.036791 C1258.2448,130.432094 1259.29461,140.64125 1256.1051,153.558744 C1269.33356,157.242461 1277.99399,163.377476 1277.99399,170.323323 C1277.99399,177.334262 1269.17048,183.519102 1255.73199,187.19082 C1259.36597,200.791233 1258.46334,211.642393 1252.36396,215.16387 C1246.36039,218.630034 1236.72435,214.185333 1226.92387,204.558938 C1217.12338,214.185333 1207.48734,218.630034 1201.48377,215.16387 C1195.37039,211.634305 1194.47765,200.741353 1198.14085,187.097074 Z M1254.26942,182.306066 C1256.75032,181.632561 1259.0718,180.86526 1261.19948,180.01237 C1268.96031,176.9014 1272.90524,173.16267 1272.90524,170.323323 C1272.90524,167.483976 1268.96031,163.745246 1261.19948,160.634276 C1259.20361,159.834223 1257.03722,159.109484 1254.72866,158.466831 C1253.46215,162.517362 1251.82193,166.765293 1249.82392,171.10033 C1251.58848,174.928844 1253.07396,178.689411 1254.26942,182.306066 Z M1212.33431,155.936396 C1209.47162,156.300238 1206.71384,156.768543 1204.09445,157.333326 C1204.90278,159.875724 1205.86388,162.491121 1206.96795,165.146617 C1207.70988,163.742206 1208.48767,162.334013 1209.30079,160.925644 C1210.28786,159.215993 1211.30074,157.551567 1212.33431,155.936396 Z M1216.09061,150.404028 C1218.47557,147.093804 1220.93239,144.049345 1223.40518,141.314626 C1221.68014,139.617733 1219.95508,138.087708 1218.25056,136.746332 C1211.68302,131.577958 1206.4808,130.026892 1204.02778,131.443145 C1201.57476,132.859397 1200.31691,138.140184 1201.50908,146.412031 C1201.78576,148.331754 1202.18485,150.341135 1202.70024,152.419638 C1206.84692,151.509397 1211.34438,150.8239 1216.09061,150.404028 Z M1242.54579,184.623319 C1244.87581,184.312172 1247.13376,183.931429 1249.3013,183.485474 C1248.59379,181.38069 1247.78482,179.230839 1246.87978,177.054043 C1246.13785,178.458454 1245.36006,179.866648 1244.54694,181.275017 C1243.89079,182.411496 1243.22324,183.527991 1242.54579,184.623319 Z M1238.90798,190.170483 C1236.16613,194.114362 1233.31512,197.709193 1230.44255,200.886035 C1232.16759,202.582927 1233.89266,204.112952 1235.59717,205.454329 C1242.16471,210.622703 1247.36693,212.173768 1249.81995,210.757516 C1252.27297,209.341263 1253.53082,204.060477 1252.33865,195.788629 C1252.00041,193.441721 1251.4792,190.960813 1250.78622,188.383425 C1247.07416,189.167115 1243.09106,189.772295 1238.90798,190.170482 Z M1227.10649,180.402489 C1221.54146,180.402489 1217.03011,175.889893 1217.03011,170.323323 C1217.03011,164.756753 1221.54146,160.244156 1227.10649,160.244156 C1232.67152,160.244156 1237.18287,164.756753 1237.18287,170.323323 C1237.18287,175.889893 1232.67152,180.402489 1227.10649,180.402489 Z" id="Combined-Shape" fill="#233466"></path>
                <path d="M1378.63231,178.966667 L1412.65935,194.011667 L1404.92447,239.146667 L1378.93401,254.191667 L1352.34015,239.146667 L1344.82811,194.011667 L1378.63231,178.966667 Z M1378.63731,183.080444 L1349.01113,196.265959 L1355.75006,236.755781 L1378.91263,249.85959 L1401.52037,236.772731 L1408.46186,196.267323 L1378.63731,183.080444 Z M1396.43883,231.575 L1389.73803,231.575 L1386.12515,222.553953 L1378.49796,222.553953 L1370.87077,222.553953 L1367.2579,231.575 L1360.55709,231.575 L1378.49796,191.258333 L1396.43883,231.575 Z M1373.05903,216.869457 L1378.49796,216.869457 L1383.93689,216.869457 L1378.49796,204.511858 L1373.05903,216.869457 Z" id="Combined-Shape" fill="#233466"></path>
                <path d="M1400.09317,69.3891075 L1407.02521,76.3627896 C1406.87827,76.8806258 1406.79959,77.4274262 1406.79959,77.9927129 C1406.79959,80.5729483 1408.43878,82.768031 1410.72669,83.5815509 L1410.72669,107.960121 C1408.43878,108.773641 1406.79959,110.968724 1406.79959,113.548959 C1406.79959,116.821821 1409.43692,119.475 1412.69024,119.475 C1415.94355,119.475 1418.58088,116.821821 1418.58088,113.548959 C1418.58088,110.968724 1416.9417,108.773641 1414.65379,107.960121 L1414.65379,84.0372066 L1425.28762,94.73494 C1424.7691,95.6173907 1424.47153,96.6468277 1424.47153,97.7461829 C1424.47153,101.019045 1427.10886,103.672224 1430.36218,103.672224 C1433.61549,103.672224 1436.25282,101.019045 1436.25282,97.7461829 C1436.25282,94.4733208 1433.61549,91.8201419 1430.36218,91.8201419 C1429.64081,91.8201419 1428.94972,91.9505882 1428.31096,92.1893122 L1417.5415,81.3551492 C1418.19701,80.3998172 1418.58088,79.241364 1418.58088,77.9927129 C1418.58088,74.7198508 1415.94355,72.0666718 1412.69024,72.0666718 C1411.44904,72.0666718 1410.29751,72.452855 1409.34788,73.1122981 L1402.87491,66.6004339 L1411.21444,58.2401152 C1411.99451,57.4580946 1413.26084,57.4565178 1414.04286,58.2365931 C1414.04404,58.2377657 1414.04521,58.2389397 1414.04638,58.2401152 L1450.20912,94.4930314 C1450.98783,95.2736752 1450.98783,96.5372905 1450.20912,97.3179343 L1414.04638,133.57085 C1413.26631,134.352871 1411.99998,134.354448 1411.21796,133.574373 C1411.21678,133.5732 1411.21561,133.572026 1411.21444,133.57085 L1375.05169,97.3179343 C1374.27299,96.5372905 1374.27299,95.2736752 1375.05169,94.4930314 L1400.09317,69.3891075 Z" id="Combined-Shape" fill="#233466"></path>
                <path d="M1125.21408,102.907537 C1134.08635,104.664028 1143.37783,101.845207 1149.78877,95.3374539 C1146.09985,95.9224649 1141.53464,95.5904084 1136.59478,94.2969884 C1132.8767,98.336941 1128.92299,101.312891 1125.21408,102.907537 Z M1110.27119,94.3730056 C1110.15571,93.4341393 1110.09958,92.445139 1110.10234,91.413468 C1109.09326,91.0773026 1108.14429,90.698891 1107.26286,90.2804438 C1108.1281,91.7254562 1109.13286,93.0970565 1110.27119,94.3730056 Z M1103.56395,73.3265357 C1104.08155,72.7562775 1104.65116,72.1946576 1105.26945,71.644142 C1104.88631,70.9375931 1104.54824,70.2380392 1104.25684,69.5488986 C1103.93398,70.7992747 1103.70385,72.0616153 1103.56395,73.3265357 Z M1103.1419,61.8027153 C1103.30928,61.0415825 1103.58031,60.3281551 1103.9593,59.6717253 C1104.44994,58.8219099 1105.11378,58.0810403 1105.92868,57.4510726 C1114.85468,45.7626295 1130.9503,41.8867101 1144.26782,48.4907518 C1144.94562,48.6731561 1145.59163,48.9382847 1146.20039,49.2897505 C1146.82687,49.6514493 1147.39389,50.0930385 1147.90188,50.6073852 C1154.74621,55.2348894 1159.20423,62.2150475 1160.81645,69.8318265 C1161.07633,70.4215833 1161.26486,71.0356081 1161.37715,71.6724462 C1161.52344,72.5021173 1161.5349,73.339661 1161.42057,74.1783546 C1161.82199,80.1124261 1160.52435,86.2286876 1157.32497,91.7701721 C1148.75925,106.606447 1129.80968,111.697375 1115.00175,103.148014 C1100.52341,94.7889393 1095.35824,76.4810565 1103.1419,61.8027153 Z M1113.89125,54.8723841 C1117.50688,54.6202953 1121.78025,55.135674 1126.33192,56.4520248 C1129.45132,53.3711659 1132.68464,51.0475613 1135.76096,49.6601495 C1128.06472,48.1497129 1120.05721,50.0798892 1113.89125,54.8723841 Z M1151.10927,58.6173242 C1151.22981,59.8793044 1151.24769,61.2255367 1151.16393,62.6390013 C1152.4564,63.0557417 1153.65332,63.5406831 1154.73955,64.0893221 C1153.76438,62.1405479 1152.54995,60.3003229 1151.10927,58.6173242 Z M1108.72168,60.1783944 C1108.12255,60.9914244 1107.56246,61.8461197 1107.0456,62.7413604 C1106.96895,62.8741094 1106.89356,63.0072355 1106.81941,63.1407253 C1106.58915,64.804846 1107.13008,66.9275154 1108.34313,69.2677073 C1111.59137,67.0674368 1115.64725,65.1400379 1120.24682,63.6812346 C1121.24555,62.267393 1122.28098,60.9321535 1123.34133,59.6832848 C1116.90896,58.1185395 1111.45592,58.3614906 1108.72168,60.1783944 Z M1157.52335,74.0029083 C1157.44115,73.023536 1157.30605,72.0505194 1157.11923,71.0883282 C1156.17101,69.2510646 1153.90109,67.6748284 1150.70117,66.5511638 C1150.49279,67.7530618 1150.22139,68.9875718 1149.88747,70.2462701 C1152.30178,72.6339863 1154.27558,75.096534 1155.74789,77.502894 C1156.69662,76.3136247 1157.30469,75.1301049 1157.52335,74.0029083 Z M1142.92631,52.1566926 C1139.81374,51.514905 1135.1967,53.6254278 1130.499,57.856088 C1132.65369,58.6842736 1134.84315,59.6840363 1137.03045,60.8586364 C1140.74382,60.7657772 1144.23229,61.0482145 1147.34752,61.661853 C1147.47573,58.0617623 1146.80192,55.2081815 1145.37738,53.5844642 C1144.95445,53.3079218 1144.52142,53.0415139 1144.07842,52.7857485 C1143.6974,52.5657712 1143.31326,52.3561148 1142.92631,52.1566926 Z M1139.50303,90.9927474 C1146.85724,92.5761485 1152.74911,91.7261716 1154.43164,88.8119459 C1155.14444,87.5773284 1155.15865,85.873678 1154.55437,83.8959195 C1150.72623,86.7919365 1145.52773,89.2920431 1139.50303,90.9927474 Z M1111.97263,80.2829624 C1110.18831,78.5290909 1108.64162,76.7337529 1107.35681,74.949016 C1104.8639,77.2894913 1103.61332,79.7011531 1103.98212,81.7927387 C1104.38446,84.0745018 1106.72811,86.0550587 1110.37931,87.4244923 C1110.67528,85.1593519 1111.20761,82.7585564 1111.97263,80.2829624 Z M1113.42184,76.1994507 C1114.36316,73.8479767 1115.50239,71.4606455 1116.83663,69.0858111 C1114.39061,70.1335226 1112.22053,71.3106664 1110.39012,72.5511277 C1111.25845,73.7509829 1112.27273,74.9761064 1113.42184,76.1994507 Z M1148.56131,74.4709088 C1147.43268,77.5922402 1145.94777,80.7994448 1144.11357,83.9763731 C1143.77329,84.5657648 1143.42609,85.1452659 1143.0726,85.7144672 C1147.08027,84.1680736 1150.44656,82.2700887 1152.92766,80.2734909 C1151.85546,78.4148527 1150.38449,76.4429054 1148.56131,74.4709088 Z M1145.48503,71.4524954 C1142.97308,69.2064058 1140.02204,67.0379199 1136.70391,65.1221966 C1136.50348,65.0064779 1136.30292,64.8923803 1136.10227,64.7798982 C1133.74453,64.8838566 1131.27649,65.1481933 1128.74311,65.5948968 C1126.62712,65.9680025 1124.59748,66.44507 1122.67443,67.0050984 C1121.94963,68.0824746 1121.24525,69.2091981 1120.56796,70.3823035 C1118.86101,73.3388232 1117.49523,76.2970593 1116.45827,79.1406777 C1118.92915,81.3272565 1121.81594,83.435902 1125.05185,85.304156 C1127.37139,86.6433456 1129.70821,87.7654227 1131.99819,88.6790032 C1132.26132,88.6362997 1132.52522,88.5916317 1132.78983,88.5449743 C1134.26343,88.2851388 1135.69515,87.9748829 1137.07816,87.6212996 C1138.35886,85.9039512 1139.59385,84.0367231 1140.74991,82.0343632 C1142.82516,78.4399265 1144.39614,74.8429528 1145.48503,71.4524954 Z M1146.60891,67.2804888 C1146.73697,66.6865737 1146.84854,66.1029529 1146.94374,65.5309904 C1145.91343,65.3210928 1144.82541,65.1492226 1143.68741,65.0191588 C1144.70615,65.755117 1145.68074,66.5105289 1146.60891,67.2804888 Z M1115.18242,83.1753485 C1114.68236,85.0501752 1114.33735,86.8429235 1114.14326,88.5148786 C1117.12153,89.1640534 1120.60802,89.489501 1124.40653,89.3952855 C1123.97405,89.1596472 1123.54172,88.9171658 1123.10984,88.6678159 C1120.19383,86.9842557 1117.53895,85.1267728 1115.18242,83.1753485 Z M1132.44684,93.0116056 C1132.14571,92.9040013 1131.84376,92.7930134 1131.54109,92.6786331 C1125.10948,93.6088869 1119.03649,93.4634283 1113.97064,92.4350655 C1114.1089,96.0239467 1115.15983,98.6649335 1117.06017,99.7620933 C1120.37902,101.678235 1126.48046,98.9962659 1132.44684,93.0116056 Z M1127.45412,60.8921296 C1127.10119,61.2792614 1126.74956,61.6777409 1126.39985,62.0872945 C1126.95103,61.9747366 1127.50741,61.8688464 1128.06866,61.7698839 C1128.47906,61.6975186 1128.88829,61.6295228 1129.29618,61.5658479 C1128.67799,61.3260918 1128.06354,61.1015756 1127.45412,60.8921281 Z M1151.0991,36.724514 L1154.45106,38.6597681 L1150.08956,46.214108 L1146.7376,44.2788539 L1151.0991,36.724514 Z M1168.01542,50.9678028 L1169.94908,54.3225242 L1162.40096,58.6876136 L1160.4673,55.3328921 L1168.01542,50.9678028 Z M1175.72325,71.0861799 L1175.72049,74.9614737 L1167.00826,74.9676904 L1167.01102,71.0923966 L1175.72325,71.0861799 Z M1133.65945,31.094125 L1133.65323,39.8135361 L1129.78113,39.8162991 L1129.78734,31.0968879 L1133.65945,31.094125 Z M1112.38251,34.4781386 L1116.73324,42.0262618 L1113.37852,43.9663015 L1109.02778,36.4181783 L1112.38251,34.4781386 Z" id="Combined-Shape" fill="#233466"></path>
            </g>
        </g>
    </g>
</svg>